<?xml version="1.0" encoding="utf-8"?><!-- Uploaded to: SVG Repo, www.svgrepo.com, Generator: SVG Repo Mixer Tools -->
<svg width="800px" height="800px" viewBox="0 0 24 24" fill="none" xmlns="http://www.w3.org/2000/svg">
<path d="M7.44714 7.10557C6.95319 6.8586 6.35255 7.05881 6.10557 7.55276C5.8586 8.04671 6.05881 8.64735 6.55276 8.89433L7.04348 9.13969C7.01504 9.25507 6.99995 9.37571 6.99995 9.49987C6.99995 10.3282 7.67149 10.9998 8.49987 10.9998C9.32825 10.9998 9.99978 10.3282 9.99978 9.49987L9.99979 8.99989C9.99979 8.49992 9.86852 8.31626 9.44703 8.10552L7.44714 7.10557Z" fill="#0F0F0F"/>
<path d="M17.8942 7.55298C17.6472 7.05902 17.0466 6.85881 16.5527 7.10579L14.5528 8.10573C14.1313 8.31648 14 8.50013 14 9.0001L14 9.50008C14 10.3285 14.6715 11 15.4999 11C16.3283 11 16.9998 10.3285 16.9998 9.50008C16.9998 9.37592 16.9848 9.25528 16.9563 9.1399L17.447 8.89454C17.941 8.64757 18.1412 8.04693 17.8942 7.55298Z" fill="#0F0F0F"/>
<path d="M16.4447 16.8942C15.9546 17.1393 15.3594 16.9441 15.1089 16.4586C15.0951 16.4337 14.9069 16.108 14.4977 15.7806C14.0373 15.4123 13.2545 14.9998 11.9974 14.9998C10.7404 14.9998 9.9576 15.4123 9.49713 15.7806C9.08795 16.108 8.89979 16.4337 8.88598 16.4586C8.63544 16.9441 8.04032 17.1393 7.55023 16.8942C7.06244 16.6503 6.85892 16.039 7.10355 15.5515C7.18958 15.3887 7.29006 15.2346 7.40057 15.0873C7.58337 14.8435 7.85932 14.5296 8.24775 14.2189C9.03728 13.5873 10.2545 12.9998 11.9974 12.9998C13.7404 12.9998 14.9576 13.5873 15.7471 14.2189C16.1356 14.5296 16.4115 14.8435 16.5943 15.0873C16.7044 15.2341 16.8094 15.3882 16.8919 15.5526C17.1389 16.0465 16.9386 16.6472 16.4447 16.8942Z" fill="#0F0F0F"/>
<path fill-rule="evenodd" clip-rule="evenodd" d="M2.02457 0.0975463L7.31841 2.0431C8.73891 1.37403 10.3258 1 12 1C13.6742 1 15.2611 1.37403 16.6816 2.0431L21.9754 0.0975463C23.3484 -0.407043 24.5579 1.15124 23.7284 2.35609L21.2204 5.99892C22.3459 7.72469 23 9.78596 23 12C23 18.0751 18.0751 23 12 23C5.92487 23 1 18.0751 1 12C1 9.78596 1.65412 7.72469 2.77964 5.99892L0.271636 2.35609C-0.557874 1.15124 0.65158 -0.407043 2.02457 0.0975463ZM2.81078 2.51728L5.16347 3.38192C4.78161 3.68525 4.42037 4.01342 4.0822 4.36399L2.81078 2.51728ZM19.9178 4.36399L21.1892 2.51728L18.8365 3.38192C19.2184 3.68525 19.5796 4.01342 19.9178 4.36399ZM3.00683 12C3.00683 16.9668 7.03321 20.9932 12 20.9932C16.9668 20.9932 20.9932 16.9668 20.9932 12C20.9932 7.03321 16.9668 3.00683 12 3.00683C7.03321 3.00683 3.00683 7.03321 3.00683 12Z" fill="#0F0F0F"/>
</svg>