<?xml version="1.0" encoding="utf-8"?><!-- Uploaded to: SVG Repo, www.svgrepo.com, Generator: SVG Repo Mixer Tools -->
<svg width="800px" height="800px" viewBox="0 0 24 24" fill="none" xmlns="http://www.w3.org/2000/svg">
<path d="M10.7041 7.2924C10.3141 6.90253 9.68178 6.90253 9.29176 7.2924L8.49735 8.0865L7.70797 7.29743C7.31795 6.90756 6.68561 6.90756 6.29559 7.29743C5.90557 7.6873 5.90556 8.3194 6.29558 8.70926L7.08496 9.49833L6.29251 10.2905C5.9025 10.6803 5.90249 11.3124 6.29251 11.7023C6.68254 12.0922 7.31488 12.0922 7.7049 11.7023L8.49735 10.9102L9.2951 11.7076C9.68512 12.0975 10.3175 12.0975 10.7075 11.7076C11.0975 11.3177 11.0975 10.6856 10.7075 10.2958L9.90974 9.49833L10.7041 8.70424C11.0942 8.31437 11.0942 7.68227 10.7041 7.2924Z" fill="#0F0F0F"/>
<path d="M16.2918 7.2924C16.6818 6.90253 17.3141 6.90253 17.7041 7.2924C18.0942 7.68227 18.0942 8.31437 17.7041 8.70424L16.9097 9.49833L17.7075 10.2958C18.0975 10.6856 18.0975 11.3177 17.7075 11.7076C17.3175 12.0975 16.6851 12.0975 16.2951 11.7076L15.4974 10.9102L14.7049 11.7023C14.3149 12.0922 13.6825 12.0922 13.2925 11.7023C12.9025 11.3124 12.9025 10.6803 13.2925 10.2905L14.085 9.49833L13.2956 8.70926C12.9056 8.3194 12.9056 7.6873 13.2956 7.29743C13.6856 6.90756 14.318 6.90756 14.708 7.29743L15.4974 8.0865L16.2918 7.2924Z" fill="#0F0F0F"/>
<path d="M8.88875 14.5414C8.63822 14.0559 8.0431 13.8607 7.55301 14.1058C7.05903 14.3528 6.8588 14.9535 7.10579 15.4474C7.18825 15.6118 7.29326 15.7659 7.40334 15.9127C7.58615 16.1565 7.8621 16.4704 8.25052 16.7811C9.04005 17.4127 10.2573 18.0002 12.0002 18.0002C13.7431 18.0002 14.9604 17.4127 15.7499 16.7811C16.1383 16.4704 16.4143 16.1565 16.5971 15.9127C16.7076 15.7654 16.8081 15.6113 16.8941 15.4485C17.1387 14.961 16.9352 14.3497 16.4474 14.1058C15.9573 13.8607 15.3622 14.0559 15.1117 14.5414C15.0979 14.5663 14.9097 14.892 14.5005 15.2194C14.0401 15.5877 13.2573 16.0002 12.0002 16.0002C10.7431 16.0002 9.96038 15.5877 9.49991 15.2194C9.09071 14.892 8.90255 14.5663 8.88875 14.5414Z" fill="#0F0F0F"/>
<path fill-rule="evenodd" clip-rule="evenodd" d="M23 12C23 18.0751 18.0751 23 12 23C5.92487 23 1 18.0751 1 12C1 5.92487 5.92487 1 12 1C18.0751 1 23 5.92487 23 12ZM3.00683 12C3.00683 16.9668 7.03321 20.9932 12 20.9932C16.9668 20.9932 20.9932 16.9668 20.9932 12C20.9932 7.03321 16.9668 3.00683 12 3.00683C7.03321 3.00683 3.00683 7.03321 3.00683 12Z" fill="#0F0F0F"/>
</svg>