<?xml version="1.0" encoding="utf-8"?><!-- Uploaded to: SVG Repo, www.svgrepo.com, Generator: SVG Repo Mixer Tools -->
<svg width="800px" height="800px" viewBox="0 0 24 24" fill="none" xmlns="http://www.w3.org/2000/svg">
<path d="M10 9.5C10 10.3284 9.32843 11 8.5 11C7.67157 11 7 10.3284 7 9.5C7 8.67157 7.67157 8 8.5 8C9.32843 8 10 8.67157 10 9.5Z" fill="#0F0F0F"/>
<path d="M15.5 11C16.3284 11 17 10.3284 17 9.5C17 8.67157 16.3284 8 15.5 8C14.6716 8 14 8.67157 14 9.5C14 10.3284 14.6716 11 15.5 11Z" fill="#0F0F0F"/>
<path fill-rule="evenodd" clip-rule="evenodd" d="M7.01666 14.2938C6.9436 13.5362 7.56149 13 8.2 13H15.8C16.4385 13 17.0564 13.5362 16.9833 14.2938C16.9395 14.7489 16.7676 15.7884 16.0452 16.7336C15.2826 17.7313 14.0006 18.5 12 18.5C9.99938 18.5 8.71736 17.7313 7.95483 16.7336C7.2324 15.7884 7.06054 14.7489 7.01666 14.2938ZM9.2411 15C9.31663 15.1731 9.41526 15.3509 9.54387 15.5191C9.90187 15.9876 10.5782 16.5 12 16.5C13.4218 16.5 14.0981 15.9876 14.4561 15.5191C14.5847 15.3509 14.6834 15.1731 14.7589 15H9.2411Z" fill="#0F0F0F"/>
<path fill-rule="evenodd" clip-rule="evenodd" d="M20.9992 5.68421V1.50047C20.9992 0.441867 19.9309 -0.283213 18.9462 0.107037L15.348 1.53306C14.2923 1.19635 13.1674 1.01462 12 1.01462C10.8204 1.01462 9.68413 1.20017 8.61888 1.54367L5.05297 0.130458C4.06827 -0.259791 3 0.465289 3 1.52389V5.68535C1.73994 7.47351 1 9.65406 1 12.0073C1 18.0784 5.92487 23 12 23C18.0751 23 23 18.0784 23 12.0073C23 9.65355 22.2597 7.47258 20.9992 5.68421ZM18.9992 6.36359V2.23615C17.7709 2.72293 15.2922 3.63397 15.2922 3.63397C15.2922 3.63397 13.2846 3.02011 12 3.02011C10.7154 3.02011 8.68671 3.64971 8.68671 3.64971L5 2.25957V6.36459C3.75334 7.90712 3.00683 9.8701 3.00683 12.0073C3.00683 16.9708 7.03321 20.9945 12 20.9945C16.9668 20.9945 20.9932 16.9708 20.9932 12.0073C20.9932 9.86963 20.2463 7.90627 18.9992 6.36359Z" fill="#0F0F0F"/>
</svg>